<svg aria-hidden="true" style="width:0;height:0;position:absolute;overflow:hidden" xmlns="http://www.w3.org/2000/svg"><defs><symbol id="icon-arrow-left" viewBox="0 0 32 32"><path stroke-linejoin="round" stroke-linecap="round" stroke-width="2.667" d="M25.333 16H6.666M16 25.334l-9.333-9.333L16 6.668"/></symbol><symbol id="icon-arrow-right" viewBox="0 0 32 32"><path stroke-linejoin="round" stroke-linecap="round" stroke-width="2.667" d="M6.667 16h18.667M16 25.334l9.333-9.333L16 6.668"/></symbol><symbol id="icon-film" viewBox="0 0 32 32"><path fill="none" stroke="#fff" style="stroke:var(--color1,#fff)" stroke-linejoin="round" stroke-linecap="round" stroke-width="2.667" d="M26.427 2.667H5.574a2.907 2.907 0 0 0-2.907 2.907v20.853a2.907 2.907 0 0 0 2.907 2.907h20.853a2.907 2.907 0 0 0 2.907-2.907V5.574a2.907 2.907 0 0 0-2.907-2.907zM9.333 2.667v26.667M22.667 2.667v26.667M2.667 16h26.667M2.667 9.333h6.667M2.667 22.667h6.667M22.667 22.667h6.667M22.667 9.333h6.667"/></symbol><symbol id="icon-heart" viewBox="0 0 32 32"><path fill="#ff6b08" style="fill:var(--color2,#ff6b08)" d="m16 30.583-2.24-2.24C5.44 20.983 0 16.023 0 9.943c0-4.96 3.84-8.8 8.8-8.8 2.72 0 5.44 1.28 7.2 3.36 1.76-2.08 4.48-3.36 7.2-3.36 4.96 0 8.8 3.84 8.8 8.8 0 6.08-5.44 11.04-13.76 18.4L16 30.583z"/></symbol><symbol id="icon-search" viewBox="0 0 32 32"><path fill="none" stroke="#fff" style="stroke:var(--color1,#fff)" stroke-linejoin="round" stroke-linecap="round" stroke-width="2.667" d="M14.667 25.333c5.891 0 10.667-4.776 10.667-10.667S20.558 3.999 14.667 3.999 4 8.775 4 14.666s4.776 10.667 10.667 10.667zM28 28.001l-5.8-5.8"/></symbol><symbol id="icon-close" viewBox="0 0 32 32"><path stroke-width="2.133" d="m8.533 8.533 14.933 14.933M8.533 23.467 23.466 8.534"/></symbol><symbol id="icon-logo" viewBox="0 0 32 32"><path fill="none" stroke="#fff" style="stroke:var(--color1,#fff)" stroke-linejoin="round" stroke-linecap="round" stroke-width="2.667" d="M26.427 2.667H5.574a2.907 2.907 0 0 0-2.907 2.907v20.853a2.907 2.907 0 0 0 2.907 2.907v0h20.853a2.907 2.907 0 0 0 2.907-2.907v0V5.574a2.907 2.907 0 0 0-2.907-2.907v0zm-17.094 0v26.667M22.667 2.667v26.667M2.667 16h26.667M2.667 9.333h6.667M2.667 22.667h6.667m13.333 0h6.667M22.667 9.333h6.667"/></symbol><symbol id="icon-hart" viewBox="0 0 32 32"><path fill="#ff6b08" style="fill:var(--color1,#ff6b08)" d="m16 30.144-2.24-2.218C5.44 20.639 0 15.728 0 9.708 0 4.797 3.84.995 8.8.995c2.72 0 5.44 1.267 7.2 3.327C17.76 2.263 20.48.995 23.2.995c4.96 0 8.8 3.802 8.8 8.713 0 6.02-5.44 10.931-13.76 18.218L16 30.144z"/></symbol><symbol id="icon-arrow-left" viewBox="0 0 32 32"><path stroke-linejoin="round" stroke-linecap="round" stroke-width="2.667" d="M25.333 16H6.666M16 25.334l-9.333-9.333L16 6.668"/></symbol><symbol id="icon-arrow-right" viewBox="0 0 32 32"><path stroke-linejoin="round" stroke-linecap="round" stroke-width="2.667" d="M6.667 16h18.667M16 25.334l9.333-9.333L16 6.668"/></symbol><symbol id="icon-close" viewBox="0 0 32 32"><path d="M32 3.223 28.777 0 16 12.777 3.223 0 0 3.223 12.777 16 0 28.777 3.223 32 16 19.223 28.777 32 32 28.777 19.223 16 32 3.223z"/></symbol><symbol id="icon-menu" viewBox="0 0 32 32"><path d="M6.4 11.733V9.6h19.2v2.133H6.4zm0 5.334h19.2v-2.133H6.4v2.133zm0 5.333h19.2v-2.133H6.4V22.4z"/></symbol><symbol id="icon-closeSecond" viewBox="0 0 32 32"><path d="M23.733 10.304 22.229 8.8l-5.963 5.963L10.303 8.8l-1.504 1.504 5.963 5.963-5.963 5.963 1.504 1.504 5.963-5.963 5.963 5.963 1.504-1.504-5.963-5.963 5.963-5.963z"/></symbol><symbol id="icon-moon" viewBox="0 0 32 32"><path d="M28.853 17.333a1.328 1.328 0 0 0-1.408-.184l.008-.003a10.566 10.566 0 0 1-4.466.973h-.029.001c-5.972-.007-10.816-4.832-10.853-10.796v-.004c.007-.95.128-1.868.35-2.746l-.017.079a1.333 1.333 0 0 0-1.782-1.503l.009-.003c-4.741 2.17-7.975 6.873-7.975 12.331 0 7.467 6.053 13.52 13.52 13.52 6.311 0 11.612-4.324 13.102-10.171l.02-.094a1.328 1.328 0 0 0-.477-1.397l-.003-.002zm-12.666 8.92C10.226 26.21 5.41 21.367 5.41 15.4c0-3.4 1.563-6.435 4.01-8.425l.02-.016v.36c.008 7.464 6.056 13.512 13.519 13.52h.049c.975 0 1.925-.107 2.839-.31l-.087.016c-1.852 3.452-5.437 5.76-9.56 5.76h-.014.001z"/></symbol><symbol id="icon-sun" viewBox="0 0 32 32"><path d="M16 21.333a5.333 5.333 0 1 1 0-10.666 5.333 5.333 0 0 1 0 10.666zM16 24a8 8 0 1 0 0-16 8 8 0 0 0 0 16zM14.667 0h2.667v5.416a10.867 10.867 0 0 0-2.666 0V0zM9.459 7.574l-3.83-3.83L3.743 5.63l3.83 3.83a10.722 10.722 0 0 1 1.886-1.886zm-4.043 7.093H0v2.667h5.416a10.867 10.867 0 0 1 0-2.666zm2.157 7.874-3.83 3.83 1.886 1.886 3.83-3.83a10.722 10.722 0 0 1-1.886-1.886zm7.094 4.043V32h2.667v-5.416a10.673 10.673 0 0 1-2.666 0zm7.874-2.157 3.83 3.83 1.886-1.886-3.83-3.83a10.722 10.722 0 0 1-1.886 1.886zm4.043-7.094H32v-2.667h-5.416a10.673 10.673 0 0 1 0 2.666zm-2.158-7.874 3.83-3.83-1.886-1.886-3.83 3.83a10.722 10.722 0 0 1 1.886 1.886z"/></symbol><symbol id="icon-sunSmile" viewBox="0 0 32 32"><path d="m10.259 29.858 3.514-3.6a10.439 10.439 0 0 1-3.492-1.459l.04.024-.062 5.035zM21.741 2.142l-3.514 3.6a10.42 10.42 0 0 1 3.492 1.46l-.04-.024.061-5.035zM5.742 18.227l-3.6 3.512 5.035-.061a10.267 10.267 0 0 1-1.421-3.382l-.013-.07zM26.258 13.774l3.599-3.514-5.035.062a10.29 10.29 0 0 1 1.422 3.382l.013.07zM7.178 10.321l-5.035-.062 3.599 3.514a10.42 10.42 0 0 1 1.46-3.492l-.024.04zM24.823 21.679l5.035.061-3.599-3.513a10.44 10.44 0 0 1-1.46 3.492l.024-.04zM13.773 5.742l-3.512-3.6.06 5.035a10.29 10.29 0 0 1 3.382-1.422l.07-.013zM18.227 26.259l3.514 3.599-.061-5.035a10.29 10.29 0 0 1-3.382 1.422l-.07.013zM7.375 21.981l-1.982 4.625 4.626-1.982a10.669 10.669 0 0 1-2.621-2.609l-.022-.034zM24.624 10.02l1.982-4.626-4.625 1.982a10.673 10.673 0 0 1 2.621 2.61l.022.034zM5.5 16c0-.639.066-1.262.176-1.87L1 16l4.676 1.87a10.218 10.218 0 0 1-.176-1.867v-.002zM31 16l-4.677-1.87c.11.608.176 1.232.176 1.87s-.067 1.262-.176 1.87L31 16zM10.02 7.375 5.394 5.393l1.982 4.626a10.655 10.655 0 0 1 2.61-2.621l.034-.022zM21.981 24.624l4.625 1.982-1.982-4.625a10.652 10.652 0 0 1-2.609 2.621l-.034.022zM17.87 5.676 16 1l-1.871 4.676a10.218 10.218 0 0 1 1.867-.176h.003c.639 0 1.263.066 1.871.176zM14.13 26.324 16.001 31l1.87-4.676c-.561.109-1.208.173-1.868.176H16c-.639 0-1.261-.067-1.87-.176z"/><path d="M15.999 6.5c-5.246 0-9.5 4.254-9.5 9.5s4.254 9.5 9.5 9.5c5.247 0 9.499-4.253 9.499-9.5s-4.253-9.5-9.499-9.5zm0 18c-4.687 0-8.5-3.813-8.5-8.5s3.813-8.5 8.5-8.5c4.687 0 8.499 3.813 8.499 8.5s-3.813 8.5-8.499 8.5z"/><path d="M19.985 18.622c-2.569 1.791-5.417 1.781-7.97 0-.307-.214-.584.157-.376.5A5.124 5.124 0 0 0 16 21.544a5.13 5.13 0 0 0 4.361-2.422c.208-.343-.069-.714-.376-.5zM14.502 15.668c.152.159.456-.134.398-.297-.589-1.619-1.476-2.428-2.362-2.428s-1.774.809-2.362 2.428c-.059.163.245.456.398.297.571-.602 1.253-.842 1.964-.842s1.396.239 1.965.842zM19.462 12.943c-.886 0-1.773.809-2.363 2.428-.058.163.246.456.398.297a2.608 2.608 0 0 1 1.965-.842 2.61 2.61 0 0 1 1.966.842c.152.159.455-.134.398-.297-.589-1.619-1.476-2.428-2.363-2.428z"/></symbol><symbol id="icon-arrow-up" viewBox="0 0 32 32"><path d="M32 16c0-8.837-7.163-16-16-16S0 7.163 0 16s7.163 16 16 16 16-7.163 16-16zM2.5 16C2.5 8.544 8.544 2.5 16 2.5S29.5 8.544 29.5 16 23.456 29.5 16 29.5 2.5 23.456 2.5 16z"/><path d="M22.707 18.707a.999.999 0 0 0 0-1.414l-6-6a.999.999 0 0 0-1.414 0l-6 6a.997.997 0 0 0 0 1.414.999.999 0 0 0 1.414 0L16 13.414l5.293 5.293a.999.999 0 0 0 1.414 0z"/></symbol></defs></svg>