<svg aria-hidden="true" style="position: absolute; width: 0; height: 0; overflow: hidden;" version="1.1" xmlns="http://www.w3.org/2000/svg" xmlns:xlink="http://www.w3.org/1999/xlink">
<defs>
<symbol id="icon-search" viewBox="0 0 32 32">
<path fill="none" stroke="#fff" style="stroke: var(--color1, #fff)" stroke-linejoin="round" stroke-linecap="round" stroke-miterlimit="4" stroke-width="2.6667" d="M14.667 25.333c5.891 0 10.667-4.776 10.667-10.667s-4.776-10.667-10.667-10.667c-5.891 0-10.667 4.776-10.667 10.667s4.776 10.667 10.667 10.667z"></path>
<path fill="none" stroke="#fff" style="stroke: var(--color1, #fff)" stroke-linejoin="round" stroke-linecap="round" stroke-miterlimit="4" stroke-width="2.6667" d="M28 28.001l-5.8-5.8"></path>
</symbol>
<symbol id="icon-arrow-up" viewBox="0 0 32 32">
<path d="M32 16c0-8.837-7.163-16-16-16s-16 7.163-16 16 7.163 16 16 16 16-7.163 16-16zM2.5 16c0-7.456 6.044-13.5 13.5-13.5s13.5 6.044 13.5 13.5-6.044 13.5-13.5 13.5-13.5-6.044-13.5-13.5z"></path>
<path d="M22.707 18.707c0.391-0.391 0.391-1.023 0-1.414l-6-6c-0.391-0.391-1.023-0.391-1.414 0l-6 6c-0.195 0.195-0.293 0.451-0.293 0.707s0.098 0.512 0.293 0.707c0.391 0.391 1.023 0.391 1.414 0l5.293-5.293 5.293 5.293c0.391 0.391 1.023 0.391 1.414-0z"></path>
</symbol>
<symbol id="icon-logo" viewBox="0 0 32 32">
<path fill="none" stroke="#fff" style="stroke: var(--color1, #fff)" stroke-linejoin="round" stroke-linecap="round" stroke-miterlimit="4" stroke-width="2.6667" d="M26.427 2.667h-20.853c-1.605 0-2.907 1.301-2.907 2.907v0 20.853c0 1.605 1.301 2.907 2.907 2.907v0h20.853c1.605 0 2.907-1.301 2.907-2.907v0-20.853c0-1.605-1.301-2.907-2.907-2.907v0zM9.333 2.667v26.667M22.667 2.667v26.667M2.667 16h26.667M2.667 9.333h6.667M2.667 22.667h6.667M22.667 22.667h6.667M22.667 9.333h6.667"></path>
</symbol>
<symbol id="icon-hart" viewBox="0 0 32 32">
<path fill="#ff6b08" style="fill: var(--color1, #ff6b08)" d="M16 30.144l-2.24-2.218c-8.32-7.287-13.76-12.198-13.76-18.218 0-4.911 3.84-8.713 8.8-8.713 2.72 0 5.44 1.267 7.2 3.327 1.76-2.059 4.48-3.327 7.2-3.327 4.96 0 8.8 3.802 8.8 8.713 0 6.020-5.44 10.931-13.76 18.218l-2.24 2.218z"></path>
</symbol>
<symbol id="icon-arrow-left" viewBox="0 0 32 32">
<path stroke-linejoin="round" stroke-linecap="round" stroke-miterlimit="4" stroke-width="2.6667" d="M25.333 16h-18.667"></path>
<path stroke-linejoin="round" stroke-linecap="round" stroke-miterlimit="4" stroke-width="2.6667" d="M16 25.334l-9.333-9.333 9.333-9.333"></path>
</symbol>
<symbol id="icon-arrow-right" viewBox="0 0 32 32">
<path stroke-linejoin="round" stroke-linecap="round" stroke-miterlimit="4" stroke-width="2.6667" d="M6.667 16h18.667"></path>
<path stroke-linejoin="round" stroke-linecap="round" stroke-miterlimit="4" stroke-width="2.6667" d="M16 25.334l9.333-9.333-9.333-9.333"></path>
</symbol>
 <symbol id="icon-close" viewBox="0 0 32 32">
      <path
        d="M32 3.223 28.777 0 16 12.777 3.223 0 0 3.223 12.777 16 0 28.777 3.223 32 16 19.223 28.777 32 32 28.777 19.223 16 32 3.223z" />
    </symbol>
     <symbol id="icon-menu" viewBox="0 0 32 32">
      <path d="M6.4 11.733V9.6h19.2v2.133H6.4zm0 5.334h19.2v-2.133H6.4v2.133zm0 5.333h19.2v-2.133H6.4V22.4z" />
    </symbol>

    <symbol id="icon-closeSecond" viewBox="0 0 32 32">
      <path
        d="M23.733 10.304 22.229 8.8l-5.963 5.963L10.303 8.8l-1.504 1.504 5.963 5.963-5.963 5.963 1.504 1.504 5.963-5.963 5.963 5.963 1.504-1.504-5.963-5.963 5.963-5.963z" />
    </symbol>

    <svg aria-hidden="true" style="position: absolute; width: 0; height: 0; overflow: hidden;" version="1.1" xmlns="http://www.w3.org/2000/svg" xmlns:xlink="http://www.w3.org/1999/xlink">
<defs>
<symbol id="icon-moon" viewBox="0 0 32 32">
<path d="M28.853 17.333c-0.229-0.19-0.526-0.306-0.849-0.306-0.2 0-0.389 0.044-0.559 0.122l0.008-0.003c-1.311 0.615-2.847 0.973-4.466 0.973-0.010 0-0.019 0-0.029-0h0.001c-5.972-0.007-10.816-4.832-10.853-10.796l-0-0.004c0.007-0.95 0.128-1.868 0.35-2.746l-0.017 0.079c0.016-0.077 0.025-0.166 0.025-0.257 0-0.736-0.597-1.333-1.333-1.333-0.167 0-0.327 0.031-0.474 0.087l0.009-0.003c-4.741 2.17-7.975 6.873-7.975 12.331 0 7.467 6.053 13.52 13.52 13.52 6.311 0 11.612-4.324 13.102-10.171l0.020-0.094c0.028-0.102 0.044-0.219 0.044-0.34 0-0.431-0.204-0.814-0.521-1.057l-0.003-0.002zM16.187 26.253c-5.961-0.043-10.777-4.886-10.777-10.853 0-3.4 1.563-6.435 4.010-8.425l0.020-0.016v0.36c0.008 7.464 6.056 13.512 13.519 13.52h0.001c0.014 0 0.031 0 0.048 0 0.975 0 1.925-0.107 2.839-0.31l-0.087 0.016c-1.852 3.452-5.437 5.76-9.56 5.76-0.005 0-0.009 0-0.014 0h0.001z"></path>
</symbol>
<symbol id="icon-sun-" viewBox="0 0 32 32">
<path d="M16 21.333c-2.946 0-5.333-2.388-5.333-5.333s2.388-5.333 5.333-5.333c2.945 0 5.333 2.388 5.333 5.333s-2.388 5.333-5.333 5.333zM16 24c4.418 0 8-3.582 8-8s-3.582-8-8-8c-4.418 0-8 3.582-8 8s3.582 8 8 8z"></path>
<path d="M14.667 0h2.667v5.416c-0.437-0.054-0.882-0.083-1.333-0.083s-0.897 0.028-1.333 0.083v-5.416zM9.459 7.574l-3.83-3.83-1.886 1.886 3.83 3.83c0.547-0.704 1.181-1.338 1.886-1.886zM5.416 14.667h-5.416v2.667h5.416c-0.054-0.437-0.083-0.882-0.083-1.333s0.028-0.897 0.083-1.333zM7.573 22.541l-3.83 3.83 1.886 1.886 3.83-3.83c-0.704-0.547-1.338-1.181-1.886-1.886zM14.667 26.584v5.416h2.667v-5.416c-0.437 0.055-0.882 0.083-1.333 0.083s-0.897-0.028-1.333-0.083zM22.541 24.427l3.83 3.83 1.886-1.886-3.83-3.83c-0.547 0.704-1.181 1.338-1.886 1.886zM26.584 17.333h5.416v-2.667h-5.416c0.055 0.437 0.083 0.882 0.083 1.333s-0.028 0.897-0.083 1.333zM24.426 9.459l3.83-3.83-1.886-1.886-3.83 3.83c0.704 0.547 1.338 1.181 1.886 1.886z"></path>
</symbol>
<symbol id="icon-sunSmile" viewBox="0 0 32 32">
<path d="M10.259 29.858l3.514-3.6c-1.308-0.29-2.463-0.786-3.492-1.459l0.040 0.024-0.062 5.035z"></path>
<path d="M21.741 2.142l-3.514 3.6c1.308 0.29 2.463 0.786 3.492 1.46l-0.040-0.024 0.061-5.035z"></path>
<path d="M5.742 18.227l-3.6 3.512 5.035-0.061c-0.649-0.989-1.145-2.144-1.421-3.382l-0.013-0.070z"></path>
<path d="M26.258 13.774l3.599-3.514-5.035 0.062c0.649 0.989 1.145 2.144 1.422 3.382l0.013 0.070z"></path>
<path d="M7.178 10.321l-5.035-0.062 3.599 3.514c0.29-1.308 0.786-2.463 1.46-3.492l-0.024 0.040z"></path>
<path d="M24.823 21.679l5.035 0.061-3.599-3.513c-0.29 1.308-0.787 2.463-1.46 3.492l0.024-0.040z"></path>
<path d="M13.773 5.742l-3.512-3.6 0.060 5.035c0.989-0.649 2.144-1.145 3.382-1.422l0.070-0.013z"></path>
<path d="M18.227 26.259l3.514 3.599-0.061-5.035c-0.989 0.649-2.144 1.145-3.382 1.422l-0.070 0.013z"></path>
<path d="M7.375 21.981l-1.982 4.625 4.626-1.982c-1.039-0.728-1.915-1.605-2.621-2.609l-0.022-0.034z"></path>
<path d="M24.624 10.020l1.982-4.626-4.625 1.982c1.038 0.728 1.915 1.605 2.621 2.61l0.022 0.034z"></path>
<path d="M5.5 16c0-0.639 0.066-1.262 0.176-1.87l-4.676 1.87 4.676 1.87c-0.109-0.561-0.173-1.207-0.176-1.867v-0.002z"></path>
<path d="M31 16l-4.677-1.87c0.11 0.608 0.176 1.232 0.176 1.87s-0.067 1.262-0.176 1.87l4.677-1.87z"></path>
<path d="M10.020 7.375l-4.626-1.982 1.982 4.626c0.728-1.039 1.605-1.915 2.61-2.621l0.034-0.022z"></path>
<path d="M21.981 24.624l4.625 1.982-1.982-4.625c-0.728 1.039-1.604 1.915-2.609 2.621l-0.034 0.022z"></path>
<path d="M17.87 5.676l-1.87-4.676-1.871 4.676c0.561-0.109 1.207-0.173 1.867-0.176h0.003c0.639 0 1.263 0.066 1.871 0.176z"></path>
<path d="M14.13 26.324l1.871 4.676 1.87-4.676c-0.561 0.109-1.208 0.173-1.868 0.176h-0.003c-0.639 0-1.261-0.067-1.87-0.176z"></path>
<path d="M15.999 6.5c-5.246 0-9.5 4.254-9.5 9.5s4.254 9.5 9.5 9.5c5.247 0 9.499-4.253 9.499-9.5s-4.253-9.5-9.499-9.5zM15.999 24.5c-4.687 0-8.5-3.813-8.5-8.5s3.813-8.5 8.5-8.5c4.687 0 8.499 3.813 8.499 8.5s-3.813 8.5-8.499 8.5z"></path>
<path d="M19.985 18.622c-2.569 1.791-5.417 1.781-7.97 0-0.307-0.214-0.584 0.157-0.376 0.5 0.778 1.282 2.348 2.422 4.361 2.422 2.011 0 3.582-1.141 4.361-2.422 0.208-0.343-0.069-0.714-0.376-0.5z"></path>
<path d="M14.502 15.668c0.152 0.159 0.456-0.134 0.398-0.297-0.589-1.619-1.476-2.428-2.362-2.428s-1.774 0.809-2.362 2.428c-0.059 0.163 0.245 0.456 0.398 0.297 0.571-0.602 1.253-0.842 1.964-0.842s1.396 0.239 1.965 0.842z"></path>
<path d="M19.462 12.943c-0.886 0-1.773 0.809-2.363 2.428-0.058 0.163 0.246 0.456 0.398 0.297 0.57-0.603 1.253-0.842 1.965-0.842 0.713 0 1.395 0.239 1.966 0.842 0.152 0.159 0.455-0.134 0.398-0.297-0.589-1.619-1.476-2.428-2.363-2.428z"></path>
</symbol>

</svg>
<symbol id="icon-user-login" viewBox="0 0 32 32">
<path d="M32 16c0-8.822-7.178-16-16-16s-16 7.178-16 16c0 4.66 2.004 8.86 5.193 11.786l-0.015 0.013 0.519 0.438c0.034 0.029 0.070 0.052 0.104 0.080 0.276 0.229 0.561 0.446 0.852 0.656 0.094 0.068 0.189 0.136 0.284 0.202 0.311 0.214 0.63 0.417 0.955 0.61 0.071 0.042 0.143 0.083 0.214 0.123 0.357 0.203 0.721 0.394 1.094 0.57 0.027 0.013 0.055 0.024 0.083 0.037 1.215 0.565 2.513 0.98 3.87 1.225 0.036 0.006 0.071 0.013 0.107 0.019 0.421 0.073 0.847 0.131 1.278 0.17 0.052 0.005 0.105 0.008 0.158 0.012 0.429 0.035 0.863 0.058 1.303 0.058 0.436 0 0.866-0.023 1.293-0.057 0.054-0.005 0.108-0.008 0.162-0.012 0.428-0.039 0.85-0.095 1.267-0.167 0.036-0.006 0.073-0.013 0.109-0.020 1.336-0.24 2.615-0.645 3.815-1.196 0.044-0.020 0.089-0.040 0.133-0.061 0.359-0.169 0.71-0.351 1.054-0.545 0.086-0.048 0.17-0.097 0.255-0.147 0.313-0.184 0.621-0.377 0.92-0.582 0.108-0.073 0.213-0.151 0.319-0.227 0.255-0.184 0.506-0.374 0.75-0.572 0.054-0.044 0.112-0.081 0.165-0.126l0.532-0.445-0.016-0.013c3.217-2.928 5.24-7.147 5.24-11.831zM1.164 16c0-8.181 6.655-14.836 14.836-14.836s14.836 6.655 14.836 14.836c0 4.408-1.935 8.372-4.997 11.091-0.171-0.118-0.343-0.224-0.52-0.312l-4.926-2.463c-0.442-0.221-0.717-0.666-0.717-1.16v-1.72c0.114-0.141 0.234-0.3 0.359-0.475 0.638-0.901 1.149-1.903 1.522-2.981 0.737-0.35 1.213-1.084 1.213-1.914v-2.063c0-0.504-0.185-0.994-0.516-1.378v-2.715c0.030-0.302 0.137-2.006-1.096-3.412-1.072-1.224-2.808-1.844-5.159-1.844s-4.087 0.62-5.159 1.843c-1.233 1.406-1.126 3.11-1.096 3.412v2.715c-0.33 0.385-0.516 0.874-0.516 1.378v2.063c0 0.641 0.287 1.238 0.78 1.641 0.471 1.846 1.441 3.244 1.8 3.717v1.684c0 0.475-0.259 0.911-0.676 1.139l-4.6 2.509c-0.147 0.080-0.292 0.173-0.438 0.277-3.025-2.718-4.931-6.657-4.931-11.034zM24.703 28.004c-0.204 0.148-0.411 0.291-0.621 0.428-0.097 0.063-0.193 0.126-0.291 0.187-0.275 0.17-0.554 0.332-0.839 0.483-0.063 0.033-0.126 0.065-0.19 0.097-0.655 0.336-1.333 0.624-2.029 0.859-0.024 0.008-0.049 0.017-0.074 0.025-0.365 0.121-0.734 0.229-1.108 0.321-0.001 0-0.002 0.001-0.003 0.001-0.377 0.093-0.759 0.17-1.143 0.234-0.010 0.002-0.021 0.004-0.031 0.006-0.361 0.059-0.726 0.101-1.091 0.133-0.065 0.006-0.129 0.010-0.194 0.015-0.361 0.027-0.724 0.045-1.089 0.045-0.369 0-0.737-0.018-1.103-0.045-0.063-0.005-0.127-0.009-0.19-0.015-0.369-0.033-0.736-0.076-1.1-0.136-0.016-0.003-0.033-0.006-0.049-0.009-0.769-0.129-1.526-0.318-2.263-0.565-0.023-0.008-0.046-0.016-0.069-0.023-0.366-0.125-0.728-0.262-1.083-0.415-0.002-0.001-0.005-0.002-0.008-0.003-0.336-0.145-0.666-0.305-0.992-0.475-0.042-0.022-0.086-0.043-0.127-0.066-0.297-0.159-0.588-0.33-0.875-0.51-0.085-0.054-0.169-0.108-0.253-0.162-0.264-0.173-0.525-0.353-0.778-0.543-0.026-0.020-0.051-0.041-0.077-0.061 0.019-0.010 0.037-0.021 0.056-0.031l4.6-2.509c0.791-0.432 1.283-1.26 1.283-2.161l-0.001-2.096-0.134-0.162c-0.013-0.015-1.271-1.545-1.746-3.617l-0.053-0.23-0.198-0.129c-0.28-0.181-0.447-0.483-0.447-0.81v-2.063c0-0.271 0.115-0.522 0.324-0.712l0.192-0.173v-3.241l-0.005-0.076c-0.002-0.014-0.173-1.413 0.812-2.537 0.841-0.959 2.283-1.446 4.284-1.446 1.993 0 3.43 0.483 4.274 1.435 0.984 1.112 0.823 2.537 0.822 2.549l-0.005 3.317 0.192 0.173c0.209 0.188 0.324 0.441 0.324 0.712v2.063c0 0.415-0.282 0.791-0.687 0.916l-0.289 0.089-0.093 0.288c-0.343 1.066-0.832 2.052-1.452 2.928-0.152 0.215-0.301 0.406-0.428 0.552l-0.144 0.165v2.152c0 0.938 0.521 1.782 1.36 2.2l4.926 2.463c0.031 0.016 0.062 0.032 0.093 0.048-0.062 0.047-0.126 0.091-0.189 0.136z"></path>
</symbol>
 <symbol id="icon-email" viewBox="0 0 32 32">
      <path
     d="M26.667 5.333H5.334A2.663 2.663 0 0 0 2.681 8l-.013 16c0 1.467 1.2 2.667 2.667 2.667h21.333c1.467 0 2.667-1.2 2.667-2.667V8c0-1.467-1.2-2.667-2.667-2.667zM26.133 11l-9.427 5.893a1.346 1.346 0 0 1-1.413 0L5.866 11a1.132 1.132 0 1 1 1.2-1.92l8.933 5.587 8.933-5.587a1.132 1.132 0 1 1 1.2 1.92z" />
    </symbol>
<symbol id="icon-key" viewBox="0 0 32 32">
<path d="M22.702 2.182c3.308 0.691 5.916 3.114 6.863 6.256l0.017 0.064c0.43 1.448 0.494 2.98 0.186 4.46-0.928 4.122-4.541 7.162-8.87 7.2l-0.004 0c-0.876 0-1.748-0.126-2.586-0.38l-1.6 1.876-0.758 0.35h-1.95v3l-1 1h-3v3l-1 1h-6l-1-1v-4.614l0.292-0.706 9.948-9.948c-0.255-0.792-0.401-1.702-0.401-2.647 0-0.057 0.001-0.114 0.002-0.171l-0 0.009c0.070-4.948 4.097-8.932 9.055-8.932 0.64 0 1.264 0.066 1.866 0.192l-0.059-0.010zM25.338 16.582c1.228-1 2.111-2.381 2.469-3.962l0.009-0.048 0.008 0.010c0.1-0.447 0.158-0.96 0.158-1.487 0-3.913-3.172-7.086-7.086-7.086-0.516 0-1.018 0.055-1.502 0.16l0.047-0.008c-3.169 0.721-5.513 3.475-5.6 6.791l-0 0.009c-0.020 0.912 0.14 1.816 0.478 2.66l-0.22 1.086-10.098 10.102v3.2h4v-3l1-1h3v-3l1-1h2.49l1.752-2.032 1.122-0.28c0.749 0.301 1.617 0.476 2.526 0.476 0.004 0 0.008 0 0.013 0h-0.001c1.688-0.013 3.235-0.611 4.449-1.6l-0.013 0.010zM23.662 11.118c0.237-0.325 0.38-0.732 0.38-1.173 0-1.105-0.895-2-2-2-0.717 0-1.346 0.377-1.699 0.944l-0.005 0.008c-0.186 0.298-0.296 0.66-0.296 1.047 0 1.105 0.895 2 2 2 0.664 0 1.253-0.324 1.616-0.822l0.004-0.006z"></path>
</symbol>
</defs>
</svg>
