<svg aria-hidden="true" style="position: absolute; width: 0; height: 0; overflow: hidden;" version="1.1" xmlns="http://www.w3.org/2000/svg" xmlns:xlink="http://www.w3.org/1999/xlink">
<defs>
<symbol id="icon-arrow-left" viewBox="0 0 32 32">
<path stroke-linejoin="round" stroke-linecap="round" stroke-miterlimit="4" stroke-width="2.6667" d="M25.333 16h-18.667"></path>
<path stroke-linejoin="round" stroke-linecap="round" stroke-miterlimit="4" stroke-width="2.6667" d="M16 25.334l-9.333-9.333 9.333-9.333"></path>
</symbol>
<symbol id="icon-arrow-right" viewBox="0 0 32 32">
<path stroke-linejoin="round" stroke-linecap="round" stroke-miterlimit="4" stroke-width="2.6667" d="M6.667 16h18.667"></path>
<path stroke-linejoin="round" stroke-linecap="round" stroke-miterlimit="4" stroke-width="2.6667" d="M16 25.334l9.333-9.333-9.333-9.333"></path>
</symbol>
<symbol id="icon-film" viewBox="0 0 32 32">
<path fill="none" stroke="#fff" style="stroke: var(--color1, #fff)" stroke-linejoin="round" stroke-linecap="round" stroke-miterlimit="4" stroke-width="2.6667" d="M26.427 2.667h-20.853c-1.605 0-2.907 1.301-2.907 2.907v20.853c0 1.605 1.301 2.907 2.907 2.907h20.853c1.605 0 2.907-1.301 2.907-2.907v-20.853c0-1.605-1.301-2.907-2.907-2.907z"></path>
<path fill="none" stroke="#fff" style="stroke: var(--color1, #fff)" stroke-linejoin="round" stroke-linecap="round" stroke-miterlimit="4" stroke-width="2.6667" d="M9.333 2.667v26.667"></path>
<path fill="none" stroke="#fff" style="stroke: var(--color1, #fff)" stroke-linejoin="round" stroke-linecap="round" stroke-miterlimit="4" stroke-width="2.6667" d="M22.667 2.667v26.667"></path>
<path fill="none" stroke="#fff" style="stroke: var(--color1, #fff)" stroke-linejoin="round" stroke-linecap="round" stroke-miterlimit="4" stroke-width="2.6667" d="M2.667 16h26.667"></path>
<path fill="none" stroke="#fff" style="stroke: var(--color1, #fff)" stroke-linejoin="round" stroke-linecap="round" stroke-miterlimit="4" stroke-width="2.6667" d="M2.667 9.333h6.667"></path>
<path fill="none" stroke="#fff" style="stroke: var(--color1, #fff)" stroke-linejoin="round" stroke-linecap="round" stroke-miterlimit="4" stroke-width="2.6667" d="M2.667 22.667h6.667"></path>
<path fill="none" stroke="#fff" style="stroke: var(--color1, #fff)" stroke-linejoin="round" stroke-linecap="round" stroke-miterlimit="4" stroke-width="2.6667" d="M22.667 22.667h6.667"></path>
<path fill="none" stroke="#fff" style="stroke: var(--color1, #fff)" stroke-linejoin="round" stroke-linecap="round" stroke-miterlimit="4" stroke-width="2.6667" d="M22.667 9.333h6.667"></path>
</symbol>
<symbol id="icon-heart" viewBox="0 0 32 32">
<path fill="#ff6b08" style="fill: var(--color2, #ff6b08)" d="M16 30.583l-2.24-2.24c-8.32-7.36-13.76-12.32-13.76-18.4 0-4.96 3.84-8.8 8.8-8.8 2.72 0 5.44 1.28 7.2 3.36 1.76-2.080 4.48-3.36 7.2-3.36 4.96 0 8.8 3.84 8.8 8.8 0 6.080-5.44 11.040-13.76 18.4l-2.24 2.24z"></path>
</symbol>
<symbol id="icon-search" viewBox="0 0 32 32">
<path fill="none" stroke="#fff" style="stroke: var(--color1, #fff)" stroke-linejoin="round" stroke-linecap="round" stroke-miterlimit="4" stroke-width="2.6667" d="M14.667 25.333c5.891 0 10.667-4.776 10.667-10.667s-4.776-10.667-10.667-10.667c-5.891 0-10.667 4.776-10.667 10.667s4.776 10.667 10.667 10.667z"></path>
<path fill="none" stroke="#fff" style="stroke: var(--color1, #fff)" stroke-linejoin="round" stroke-linecap="round" stroke-miterlimit="4" stroke-width="2.6667" d="M28 28.001l-5.8-5.8"></path>
</symbol>
<symbol id="icon-close" viewBox="0 0 32 32">
<path stroke-linejoin="miter" stroke-linecap="butt" stroke-miterlimit="4" stroke-width="2.1333" d="M8.533 8.533l14.933 14.933"></path>
<path stroke-linejoin="miter" stroke-linecap="butt" stroke-miterlimit="4" stroke-width="2.1333" d="M8.533 23.467l14.933-14.933"></path>
</symbol>
<symbol id="icon-logo" viewBox="0 0 32 32">
<path fill="none" stroke="#fff" style="stroke: var(--color1, #fff)" stroke-linejoin="round" stroke-linecap="round" stroke-miterlimit="4" stroke-width="2.6667" d="M26.427 2.667h-20.853c-1.605 0-2.907 1.301-2.907 2.907v0 20.853c0 1.605 1.301 2.907 2.907 2.907v0h20.853c1.605 0 2.907-1.301 2.907-2.907v0-20.853c0-1.605-1.301-2.907-2.907-2.907v0zM9.333 2.667v26.667M22.667 2.667v26.667M2.667 16h26.667M2.667 9.333h6.667M2.667 22.667h6.667M22.667 22.667h6.667M22.667 9.333h6.667"></path>
</symbol>
<symbol id="icon-hart" viewBox="0 0 32 32">
<path fill="#ff6b08" style="fill: var(--color1, #ff6b08)" d="M16 30.144l-2.24-2.218c-8.32-7.287-13.76-12.198-13.76-18.218 0-4.911 3.84-8.713 8.8-8.713 2.72 0 5.44 1.267 7.2 3.327 1.76-2.059 4.48-3.327 7.2-3.327 4.96 0 8.8 3.802 8.8 8.713 0 6.020-5.44 10.931-13.76 18.218l-2.24 2.218z"></path>
</symbol>
<symbol id="icon-arrow-left" viewBox="0 0 32 32">
<path stroke-linejoin="round" stroke-linecap="round" stroke-miterlimit="4" stroke-width="2.6667" d="M25.333 16h-18.667"></path>
<path stroke-linejoin="round" stroke-linecap="round" stroke-miterlimit="4" stroke-width="2.6667" d="M16 25.334l-9.333-9.333 9.333-9.333"></path>
</symbol>
<symbol id="icon-arrow-right" viewBox="0 0 32 32">
<path stroke-linejoin="round" stroke-linecap="round" stroke-miterlimit="4" stroke-width="2.6667" d="M6.667 16h18.667"></path>
<path stroke-linejoin="round" stroke-linecap="round" stroke-miterlimit="4" stroke-width="2.6667" d="M16 25.334l9.333-9.333-9.333-9.333"></path>
</symbol>
 <symbol id="icon-close" viewBox="0 0 32 32">
      <path
        d="M32 3.223 28.777 0 16 12.777 3.223 0 0 3.223 12.777 16 0 28.777 3.223 32 16 19.223 28.777 32 32 28.777 19.223 16 32 3.223z" />
    </symbol>
     <symbol id="icon-menu" viewBox="0 0 32 32">
      <path d="M6.4 11.733V9.6h19.2v2.133H6.4zm0 5.334h19.2v-2.133H6.4v2.133zm0 5.333h19.2v-2.133H6.4V22.4z" />
    </symbol>

    <symbol id="icon-closeSecond" viewBox="0 0 32 32">
      <path
        d="M23.733 10.304 22.229 8.8l-5.963 5.963L10.303 8.8l-1.504 1.504 5.963 5.963-5.963 5.963 1.504 1.504 5.963-5.963 5.963 5.963 1.504-1.504-5.963-5.963 5.963-5.963z" />
    </symbol>

    <svg aria-hidden="true" style="position: absolute; width: 0; height: 0; overflow: hidden;" version="1.1" xmlns="http://www.w3.org/2000/svg" xmlns:xlink="http://www.w3.org/1999/xlink">
<defs>
<symbol id="icon-moon" viewBox="0 0 32 32">
<path d="M28.853 17.333c-0.229-0.19-0.526-0.306-0.849-0.306-0.2 0-0.389 0.044-0.559 0.122l0.008-0.003c-1.311 0.615-2.847 0.973-4.466 0.973-0.010 0-0.019 0-0.029-0h0.001c-5.972-0.007-10.816-4.832-10.853-10.796l-0-0.004c0.007-0.95 0.128-1.868 0.35-2.746l-0.017 0.079c0.016-0.077 0.025-0.166 0.025-0.257 0-0.736-0.597-1.333-1.333-1.333-0.167 0-0.327 0.031-0.474 0.087l0.009-0.003c-4.741 2.17-7.975 6.873-7.975 12.331 0 7.467 6.053 13.52 13.52 13.52 6.311 0 11.612-4.324 13.102-10.171l0.020-0.094c0.028-0.102 0.044-0.219 0.044-0.34 0-0.431-0.204-0.814-0.521-1.057l-0.003-0.002zM16.187 26.253c-5.961-0.043-10.777-4.886-10.777-10.853 0-3.4 1.563-6.435 4.010-8.425l0.020-0.016v0.36c0.008 7.464 6.056 13.512 13.519 13.52h0.001c0.014 0 0.031 0 0.048 0 0.975 0 1.925-0.107 2.839-0.31l-0.087 0.016c-1.852 3.452-5.437 5.76-9.56 5.76-0.005 0-0.009 0-0.014 0h0.001z"></path>
</symbol>
<symbol id="icon-sun" viewBox="0 0 32 32">
<path d="M16 21.333c-2.946 0-5.333-2.388-5.333-5.333s2.388-5.333 5.333-5.333c2.945 0 5.333 2.388 5.333 5.333s-2.388 5.333-5.333 5.333zM16 24c4.418 0 8-3.582 8-8s-3.582-8-8-8c-4.418 0-8 3.582-8 8s3.582 8 8 8z"></path>
<path d="M14.667 0h2.667v5.416c-0.437-0.054-0.882-0.083-1.333-0.083s-0.897 0.028-1.333 0.083v-5.416zM9.459 7.574l-3.83-3.83-1.886 1.886 3.83 3.83c0.547-0.704 1.181-1.338 1.886-1.886zM5.416 14.667h-5.416v2.667h5.416c-0.054-0.437-0.083-0.882-0.083-1.333s0.028-0.897 0.083-1.333zM7.573 22.541l-3.83 3.83 1.886 1.886 3.83-3.83c-0.704-0.547-1.338-1.181-1.886-1.886zM14.667 26.584v5.416h2.667v-5.416c-0.437 0.055-0.882 0.083-1.333 0.083s-0.897-0.028-1.333-0.083zM22.541 24.427l3.83 3.83 1.886-1.886-3.83-3.83c-0.547 0.704-1.181 1.338-1.886 1.886zM26.584 17.333h5.416v-2.667h-5.416c0.055 0.437 0.083 0.882 0.083 1.333s-0.028 0.897-0.083 1.333zM24.426 9.459l3.83-3.83-1.886-1.886-3.83 3.83c0.704 0.547 1.338 1.181 1.886 1.886z"></path>
</symbol>
<symbol id="icon-sunSmile" viewBox="0 0 32 32">
<path d="M10.259 29.858l3.514-3.6c-1.308-0.29-2.463-0.786-3.492-1.459l0.040 0.024-0.062 5.035z"></path>
<path d="M21.741 2.142l-3.514 3.6c1.308 0.29 2.463 0.786 3.492 1.46l-0.040-0.024 0.061-5.035z"></path>
<path d="M5.742 18.227l-3.6 3.512 5.035-0.061c-0.649-0.989-1.145-2.144-1.421-3.382l-0.013-0.070z"></path>
<path d="M26.258 13.774l3.599-3.514-5.035 0.062c0.649 0.989 1.145 2.144 1.422 3.382l0.013 0.070z"></path>
<path d="M7.178 10.321l-5.035-0.062 3.599 3.514c0.29-1.308 0.786-2.463 1.46-3.492l-0.024 0.040z"></path>
<path d="M24.823 21.679l5.035 0.061-3.599-3.513c-0.29 1.308-0.787 2.463-1.46 3.492l0.024-0.040z"></path>
<path d="M13.773 5.742l-3.512-3.6 0.060 5.035c0.989-0.649 2.144-1.145 3.382-1.422l0.070-0.013z"></path>
<path d="M18.227 26.259l3.514 3.599-0.061-5.035c-0.989 0.649-2.144 1.145-3.382 1.422l-0.070 0.013z"></path>
<path d="M7.375 21.981l-1.982 4.625 4.626-1.982c-1.039-0.728-1.915-1.605-2.621-2.609l-0.022-0.034z"></path>
<path d="M24.624 10.020l1.982-4.626-4.625 1.982c1.038 0.728 1.915 1.605 2.621 2.61l0.022 0.034z"></path>
<path d="M5.5 16c0-0.639 0.066-1.262 0.176-1.87l-4.676 1.87 4.676 1.87c-0.109-0.561-0.173-1.207-0.176-1.867v-0.002z"></path>
<path d="M31 16l-4.677-1.87c0.11 0.608 0.176 1.232 0.176 1.87s-0.067 1.262-0.176 1.87l4.677-1.87z"></path>
<path d="M10.020 7.375l-4.626-1.982 1.982 4.626c0.728-1.039 1.605-1.915 2.61-2.621l0.034-0.022z"></path>
<path d="M21.981 24.624l4.625 1.982-1.982-4.625c-0.728 1.039-1.604 1.915-2.609 2.621l-0.034 0.022z"></path>
<path d="M17.87 5.676l-1.87-4.676-1.871 4.676c0.561-0.109 1.207-0.173 1.867-0.176h0.003c0.639 0 1.263 0.066 1.871 0.176z"></path>
<path d="M14.13 26.324l1.871 4.676 1.87-4.676c-0.561 0.109-1.208 0.173-1.868 0.176h-0.003c-0.639 0-1.261-0.067-1.87-0.176z"></path>
<path d="M15.999 6.5c-5.246 0-9.5 4.254-9.5 9.5s4.254 9.5 9.5 9.5c5.247 0 9.499-4.253 9.499-9.5s-4.253-9.5-9.499-9.5zM15.999 24.5c-4.687 0-8.5-3.813-8.5-8.5s3.813-8.5 8.5-8.5c4.687 0 8.499 3.813 8.499 8.5s-3.813 8.5-8.499 8.5z"></path>
<path d="M19.985 18.622c-2.569 1.791-5.417 1.781-7.97 0-0.307-0.214-0.584 0.157-0.376 0.5 0.778 1.282 2.348 2.422 4.361 2.422 2.011 0 3.582-1.141 4.361-2.422 0.208-0.343-0.069-0.714-0.376-0.5z"></path>
<path d="M14.502 15.668c0.152 0.159 0.456-0.134 0.398-0.297-0.589-1.619-1.476-2.428-2.362-2.428s-1.774 0.809-2.362 2.428c-0.059 0.163 0.245 0.456 0.398 0.297 0.571-0.602 1.253-0.842 1.964-0.842s1.396 0.239 1.965 0.842z"></path>
<path d="M19.462 12.943c-0.886 0-1.773 0.809-2.363 2.428-0.058 0.163 0.246 0.456 0.398 0.297 0.57-0.603 1.253-0.842 1.965-0.842 0.713 0 1.395 0.239 1.966 0.842 0.152 0.159 0.455-0.134 0.398-0.297-0.589-1.619-1.476-2.428-2.363-2.428z"></path>
</symbol>
<symbol id="icon-arrow-up" viewBox="0 0 32 32">
<path d="M32 16c0-8.837-7.163-16-16-16s-16 7.163-16 16 7.163 16 16 16 16-7.163 16-16zM2.5 16c0-7.456 6.044-13.5 13.5-13.5s13.5 6.044 13.5 13.5-6.044 13.5-13.5 13.5-13.5-6.044-13.5-13.5z"></path>
<path d="M22.707 18.707c0.391-0.391 0.391-1.023 0-1.414l-6-6c-0.391-0.391-1.023-0.391-1.414 0l-6 6c-0.195 0.195-0.293 0.451-0.293 0.707s0.098 0.512 0.293 0.707c0.391 0.391 1.023 0.391 1.414 0l5.293-5.293 5.293 5.293c0.391 0.391 1.023 0.391 1.414-0z"></path>
</symbol>
</defs>
</svg>
